<?xml version="1.0" encoding="UTF-8"?>
<svg width="500px" height="500px" viewBox="0 0 500 500" version="1.1" xmlns="http://www.w3.org/2000/svg" xmlns:xlink="http://www.w3.org/1999/xlink">
    <title>Dark</title>
    <g id="Dark" stroke="none" stroke-width="1" fill="none" fill-rule="evenodd">
        <g id="Logo" transform="translate(25.126761, 25.000000)">
            <rect id="Rectangle" fill="#313649" x="0" y="0" width="450.004014" height="450" rx="57"></rect>
            <path d="M104.627146,329 L104.627146,248.78125 L136.036325,248.78125 L176.440622,329 L220.826364,329 L220.826364,327.083008 L174.671091,238.458984 C180.569528,235.804688 185.902699,232.658854 190.670603,229.021484 C195.438506,225.384115 199.518259,221.132324 202.909861,216.266113 C206.301462,211.399902 208.906605,205.894694 210.72529,199.750488 C212.543975,193.606283 213.453318,186.700195 213.453318,179.032227 C213.453318,168.415039 211.610056,159.075846 207.923532,151.014648 C204.237009,142.953451 198.977569,136.219401 192.145212,130.8125 C185.312855,125.405599 177.07962,121.30127 167.445505,118.499512 C157.81139,115.697754 147.046742,114.296875 135.15156,114.296875 L135.15156,114.296875 L63.1906222,114.296875 L63.1906222,329 L104.627146,329 Z M135.299021,215.160156 L104.627146,215.160156 L104.627146,147.917969 L135.15156,147.917969 C147.243357,147.917969 156.385935,150.891764 162.579294,156.839355 C168.772653,162.786947 171.869333,171.11849 171.869333,181.833984 C171.869333,192.15625 168.698923,200.291178 162.358103,206.23877 C156.017282,212.186361 146.997588,215.160156 135.299021,215.160156 L135.299021,215.160156 Z M321.247263,331.801758 C332.159372,331.801758 342.23587,330.499186 351.476755,327.894043 C360.71764,325.2889 368.680531,321.454915 375.365427,316.39209 C382.050323,311.329264 387.285186,305.135905 391.070017,297.812012 C394.854848,290.488118 396.747263,282.107422 396.747263,272.669922 C396.747263,263.822266 395.100616,255.785645 391.807321,248.560059 C388.514027,241.334473 383.893584,234.895345 377.945993,229.242676 C371.998402,223.590007 364.8957,218.699219 356.637888,214.570312 C348.380075,210.441406 339.335805,206.951497 329.505075,204.100586 C322.623565,202.232747 316.454782,200.217448 310.998728,198.054688 C305.542673,195.891927 300.897653,193.507975 297.063669,190.902832 C293.229685,188.297689 290.305043,185.373047 288.289743,182.128906 C286.274444,178.884766 285.266794,175.247396 285.266794,171.216797 C285.266794,167.382812 286.028676,163.819173 287.552439,160.525879 C289.076202,157.232585 291.312693,154.381673 294.261911,151.973145 C297.21113,149.564616 300.823923,147.696777 305.10029,146.369629 C309.376657,145.04248 314.267445,144.378906 319.772653,144.378906 C325.769398,144.378906 331.004262,145.189941 335.477243,146.812012 C339.950225,148.434082 343.685902,150.69515 346.684275,153.595215 C349.682647,156.49528 351.943715,159.960612 353.467478,163.991211 C354.991241,168.02181 355.85143,172.445638 356.048044,177.262695 L356.048044,177.262695 L396.452341,177.262695 C396.452341,167.628581 394.584502,158.780924 390.848825,150.719727 C387.113148,142.658529 381.902862,135.703288 375.217966,129.854004 C368.53307,124.00472 360.545603,119.458008 351.255564,116.213867 C341.965525,112.969727 331.716989,111.347656 320.509958,111.347656 C309.696156,111.347656 299.668812,112.748535 290.427927,115.550293 C281.187042,118.352051 273.174997,122.358073 266.391794,127.568359 C259.608591,132.778646 254.299997,139.070312 250.466013,146.443359 C246.632028,153.816406 244.715036,162.025065 244.715036,171.069336 C244.715036,180.408529 246.656605,188.666341 250.539743,195.842773 C254.422881,203.019206 259.608591,209.310872 266.096872,214.717773 C272.585153,220.124674 280.081084,224.745117 288.584665,228.579102 C297.088246,232.413086 306.009633,235.608073 315.348825,238.164062 C323.016794,240.228516 329.431345,242.465007 334.592478,244.873535 C339.753611,247.282064 343.93167,249.936361 347.126657,252.836426 C350.321644,255.736491 352.582712,258.857747 353.909861,262.200195 C355.237009,265.542643 355.900583,269.130859 355.900583,272.964844 C355.900583,276.798828 355.114125,280.313314 353.541208,283.508301 C351.968292,286.703288 349.707224,289.431315 346.758005,291.692383 C343.808786,293.953451 340.195993,295.722982 335.919626,297.000977 C331.643259,298.278971 326.752471,298.917969 321.247263,298.917969 C315.053903,298.917969 309.376657,298.229818 304.215525,296.853516 C299.054392,295.477214 294.630564,293.314453 290.94404,290.365234 C287.257517,287.416016 284.382028,283.631185 282.317575,279.010742 C280.253122,274.390299 279.122588,268.835938 278.925974,262.347656 L278.925974,262.347656 L238.226755,262.347656 C238.226755,270.21224 239.332712,277.388672 241.544626,283.876953 C243.75654,290.365234 246.804066,296.165365 250.687204,301.277344 C254.570342,306.389323 259.166208,310.862305 264.474802,314.696289 C269.783396,318.530273 275.509795,321.72526 281.654001,324.28125 C287.798207,326.83724 294.237334,328.729655 300.971384,329.958496 C307.705433,331.187337 314.46406,331.801758 321.247263,331.801758 Z" id="RS" fill-opacity="0.878769668" fill="#E2EAF0" fill-rule="nonzero"></path>
        </g>
    </g>
</svg>